<svg width="236" height="78" viewBox="0 0 236 78" fill="none" xmlns="http://www.w3.org/2000/svg">
<path d="M16 31C24.2843 31 31 24.2843 31 16C31 7.71573 24.2843 1 16 1C7.71573 1 1 7.71573 1 16C1 24.2843 7.71573 31 16 31Z" stroke="white" stroke-width="2" stroke-linecap="round" stroke-linejoin="round"/>
<path d="M66 31C74.2843 31 81 24.2843 81 16C81 7.71573 74.2843 1 66 1C57.7157 1 51 7.71573 51 16C51 24.2843 57.7157 31 66 31Z" stroke="white" stroke-width="2" stroke-linecap="round" stroke-linejoin="round"/>
<path d="M116 31C124.284 31 131 24.2843 131 16C131 7.71573 124.284 1 116 1C107.716 1 101 7.71573 101 16C101 24.2843 107.716 31 116 31Z" stroke="white" stroke-width="2" stroke-linecap="round" stroke-linejoin="round"/>
<path d="M170 31C178.284 31 185 24.2843 185 16C185 7.71573 178.284 1 170 1C161.716 1 155 7.71573 155 16C155 24.2843 161.716 31 170 31Z" stroke="white" stroke-width="2" stroke-linecap="round" stroke-linejoin="round"/>
<path d="M220 31C228.284 31 235 24.2843 235 16C235 7.71573 228.284 1 220 1C211.716 1 205 7.71573 205 16C205 24.2843 211.716 31 220 31Z" stroke="white" stroke-width="2" stroke-linecap="round" stroke-linejoin="round"/>
<path d="M16 77C24.2843 77 31 70.2843 31 62C31 53.7157 24.2843 47 16 47C7.71573 47 1 53.7157 1 62C1 70.2843 7.71573 77 16 77Z" stroke="white" stroke-width="2" stroke-linecap="round" stroke-linejoin="round"/>
<path d="M66 77C74.2843 77 81 70.2843 81 62C81 53.7157 74.2843 47 66 47C57.7157 47 51 53.7157 51 62C51 70.2843 57.7157 77 66 77Z" stroke="white" stroke-width="2" stroke-linecap="round" stroke-linejoin="round"/>
<path d="M116 77C124.284 77 131 70.2843 131 62C131 53.7157 124.284 47 116 47C107.716 47 101 53.7157 101 62C101 70.2843 107.716 77 116 77Z" stroke="white" stroke-width="2" stroke-linecap="round" stroke-linejoin="round"/>
<path d="M170 77C178.284 77 185 70.2843 185 62C185 53.7157 178.284 47 170 47C161.716 47 155 53.7157 155 62C155 70.2843 161.716 77 170 77Z" stroke="white" stroke-width="2" stroke-linecap="round" stroke-linejoin="round"/>
<path d="M220 77C228.284 77 235 70.2843 235 62C235 53.7157 228.284 47 220 47C211.716 47 205 53.7157 205 62C205 70.2843 211.716 77 220 77Z" stroke="white" stroke-width="2" stroke-linecap="round" stroke-linejoin="round"/>
<path d="M16 31C24.2843 31 31 24.2843 31 16C31 7.71573 24.2843 1 16 1C7.71573 1 1 7.71573 1 16C1 24.2843 7.71573 31 16 31Z" stroke="white" stroke-width="2" stroke-linecap="round" stroke-linejoin="round"/>
<path d="M66 31C74.2843 31 81 24.2843 81 16C81 7.71573 74.2843 1 66 1C57.7157 1 51 7.71573 51 16C51 24.2843 57.7157 31 66 31Z" stroke="white" stroke-width="2" stroke-linecap="round" stroke-linejoin="round"/>
<path d="M116 31C124.284 31 131 24.2843 131 16C131 7.71573 124.284 1 116 1C107.716 1 101 7.71573 101 16C101 24.2843 107.716 31 116 31Z" stroke="white" stroke-width="2" stroke-linecap="round" stroke-linejoin="round"/>
<path d="M170 31C178.284 31 185 24.2843 185 16C185 7.71573 178.284 1 170 1C161.716 1 155 7.71573 155 16C155 24.2843 161.716 31 170 31Z" stroke="white" stroke-width="2" stroke-linecap="round" stroke-linejoin="round"/>
<path d="M220 31C228.284 31 235 24.2843 235 16C235 7.71573 228.284 1 220 1C211.716 1 205 7.71573 205 16C205 24.2843 211.716 31 220 31Z" stroke="white" stroke-width="2" stroke-linecap="round" stroke-linejoin="round"/>
</svg>
