<svg width="56" height="56" viewBox="0 0 56 56" fill="none" xmlns="http://www.w3.org/2000/svg">
<rect x="8" y="8" width="40" height="40" fill="#E9C46A"/>
<path d="M42 49C42 45.287 40.525 41.726 37.8995 39.1005C35.274 36.475 31.713 35 28 35C24.287 35 20.726 36.475 18.1005 39.1005C15.475 41.726 14 45.287 14 49" stroke="black" stroke-width="4.66667" stroke-linecap="round" stroke-linejoin="round"/>
<path d="M27.9993 35C33.154 35 37.3327 30.8214 37.3327 25.6667C37.3327 20.512 33.154 16.3334 27.9993 16.3334C22.8447 16.3334 18.666 20.512 18.666 25.6667C18.666 30.8214 22.8447 35 27.9993 35Z" stroke="black" stroke-width="4.66667" stroke-linecap="round" stroke-linejoin="round"/>
<path d="M44.3333 7H11.6667C9.08934 7 7 9.08934 7 11.6667V44.3333C7 46.9107 9.08934 49 11.6667 49H44.3333C46.9107 49 49 46.9107 49 44.3333V11.6667C49 9.08934 46.9107 7 44.3333 7Z" stroke="black" stroke-width="4.66667" stroke-linecap="round" stroke-linejoin="round"/>
</svg>
